<svg viewBox="0 0 143 96" xmlns="http://www.w3.org/2000/svg">
<g filter="url(#filter0_ddddii_402_4)">
<ellipse cx="29.7929" cy="46.6594" rx="15.7929" ry="33.3406" fill="url(#paint0_linear_402_4)"/>
</g>
<ellipse cx="29.7928" cy="46.6594" rx="12.6343" ry="26.6725" fill="#4E4E4E"/>
<ellipse cx="29.7929" cy="46.6594" rx="9.47574" ry="20.0043" fill="#5F81F9"/>
<ellipse cx="29.793" cy="46.6592" rx="6.31716" ry="13.3362" fill="#F95757"/>
<ellipse cx="29.7929" cy="46.6592" rx="3.15858" ry="6.66812" fill="#F6F95F"/>
<rect width="6.66989" height="64.6336" transform="matrix(0.627409 0.56142 -0.536399 0.924393 100.582 16.363)" fill="#7F7F7F"/>
<rect width="6.66989" height="64.6346" transform="matrix(0.987913 -0.56142 -0.0571817 0.924394 99.4031 20.1077)" fill="#7F7F7F"/>
<rect width="5.396" height="7.29743" transform="matrix(1 0 -0.305695 0.952129 100.594 16.3628)" fill="#7F7F7F"/>
<path d="M73.6798 62.8433L67.0764 79.8542H63.5716L73.6798 62.8433Z" fill="#7F7F7F"/>
<path d="M67.7471 73.3852H72.2437L70.0918 79.8541H65.6701L67.7471 73.3852Z" fill="#7F7F7F"/>
<path d="M102.618 70.7499L102.28 79.8543H98.6457L102.618 70.7499Z" fill="#7F7F7F"/>
<path d="M97.709 73.6251H102.145L100.145 79.8545H95.709L97.709 73.6251Z" fill="#7F7F7F"/>
<rect x="29.5798" y="43.8552" width="96.6606" height="4.98551" fill="#7F7F7F"/>
<path d="M113.087 46.3478L116.748 40.9509V51.7448L113.087 46.3478Z" fill="#7F7F7F"/>
<rect x="116.749" y="40.739" width="24.4078" height="11.2174" fill="#7F7F7F"/>
<path d="M137.495 46.3478L141.157 40.9509V51.7448L137.495 46.3478Z" fill="#F2F5FA"/>
<path d="M87.7715 38.4391H94.127L81.2324 60.6672H74.8728L87.7715 38.4391Z" fill="#FF6D4D"/>
<path d="M103.958 48.8405L102.279 79.8537H95.7073L97.5953 48.8405H103.958Z" fill="#69B7FF"/>
<path d="M104.23 43.8551L106.232 16.4348L98.7536 30.1449L97.8188 43.8551H104.23Z" fill="#E4EE77"/>
<defs>
<filter id="filter0_ddddii_402_4" x="0.73396" y="0.0528078" width="60.6446" height="95.7401" filterUnits="userSpaceOnUse" color-interpolation-filters="sRGB">
<feFlood flood-opacity="0" result="BackgroundImageFix"/>
<feColorMatrix in="SourceAlpha" type="matrix" values="0 0 0 0 0 0 0 0 0 0 0 0 0 0 0 0 0 0 127 0" result="hardAlpha"/>
<feOffset dx="4.42201" dy="4.42201"/>
<feGaussianBlur stdDeviation="5.68545"/>
<feColorMatrix type="matrix" values="0 0 0 0 0.584314 0 0 0 0 0.584314 0 0 0 0 0.584314 0 0 0 0.9 0"/>
<feBlend mode="normal" in2="BackgroundImageFix" result="effect1_dropShadow_402_4"/>
<feColorMatrix in="SourceAlpha" type="matrix" values="0 0 0 0 0 0 0 0 0 0 0 0 0 0 0 0 0 0 127 0" result="hardAlpha"/>
<feOffset dx="-4.42201" dy="-4.42201"/>
<feGaussianBlur stdDeviation="4.42201"/>
<feColorMatrix type="matrix" values="0 0 0 0 1 0 0 0 0 1 0 0 0 0 1 0 0 0 0.9 0"/>
<feBlend mode="normal" in2="effect1_dropShadow_402_4" result="effect2_dropShadow_402_4"/>
<feColorMatrix in="SourceAlpha" type="matrix" values="0 0 0 0 0 0 0 0 0 0 0 0 0 0 0 0 0 0 127 0" result="hardAlpha"/>
<feOffset dx="4.42201" dy="-4.42201"/>
<feGaussianBlur stdDeviation="4.42201"/>
<feColorMatrix type="matrix" values="0 0 0 0 0.584314 0 0 0 0 0.584314 0 0 0 0 0.584314 0 0 0 0.2 0"/>
<feBlend mode="normal" in2="effect2_dropShadow_402_4" result="effect3_dropShadow_402_4"/>
<feColorMatrix in="SourceAlpha" type="matrix" values="0 0 0 0 0 0 0 0 0 0 0 0 0 0 0 0 0 0 127 0" result="hardAlpha"/>
<feOffset dx="-4.42201" dy="4.42201"/>
<feGaussianBlur stdDeviation="4.42201"/>
<feColorMatrix type="matrix" values="0 0 0 0 0.584314 0 0 0 0 0.584314 0 0 0 0 0.584314 0 0 0 0.2 0"/>
<feBlend mode="normal" in2="effect3_dropShadow_402_4" result="effect4_dropShadow_402_4"/>
<feBlend mode="normal" in="SourceGraphic" in2="effect4_dropShadow_402_4" result="shape"/>
<feColorMatrix in="SourceAlpha" type="matrix" values="0 0 0 0 0 0 0 0 0 0 0 0 0 0 0 0 0 0 127 0" result="hardAlpha"/>
<feOffset dx="-0.631716" dy="-0.631716"/>
<feGaussianBlur stdDeviation="0.631716"/>
<feComposite in2="hardAlpha" operator="arithmetic" k2="-1" k3="1"/>
<feColorMatrix type="matrix" values="0 0 0 0 0.584314 0 0 0 0 0.584314 0 0 0 0 0.584314 0 0 0 0.5 0"/>
<feBlend mode="normal" in2="shape" result="effect5_innerShadow_402_4"/>
<feColorMatrix in="SourceAlpha" type="matrix" values="0 0 0 0 0 0 0 0 0 0 0 0 0 0 0 0 0 0 127 0" result="hardAlpha"/>
<feOffset dx="0.631716" dy="0.631716"/>
<feGaussianBlur stdDeviation="0.631716"/>
<feComposite in2="hardAlpha" operator="arithmetic" k2="-1" k3="1"/>
<feColorMatrix type="matrix" values="0 0 0 0 1 0 0 0 0 1 0 0 0 0 1 0 0 0 0.3 0"/>
<feBlend mode="normal" in2="effect5_innerShadow_402_4" result="effect6_innerShadow_402_4"/>
</filter>
<linearGradient id="paint0_linear_402_4" x1="14" y1="13.3188" x2="65.5949" y2="37.7585" gradientUnits="userSpaceOnUse">
<stop stop-color="white"/>
<stop offset="1" stop-color="#F2F2F2"/>
</linearGradient>
</defs>
</svg>
